HIERARCHY
ROOT Hips
{
	OFFSET -1.602300 6.242603 43.997101
	CHANNELS 6 Xposition Yposition Zposition Zrotation Xrotation Yrotation
	JOINT Chest
	{
		OFFSET -0.204900 1.598101 7.917301
		CHANNELS 6 Xposition Yposition Zposition Zrotation Xrotation Yrotation
		JOINT Chest2
		{
			OFFSET 0.000000 0.000000 3.404099
			CHANNELS 6 Xposition Yposition Zposition Zrotation Xrotation Yrotation
			JOINT Neck
			{
				OFFSET 0.000000 0.000000 7.928600
				CHANNELS 6 Xposition Yposition Zposition Zrotation Xrotation Yrotation
				JOINT Head
				{
					OFFSET 0.000000 0.000000 2.173897
					CHANNELS 6 Xposition Yposition Zposition Zrotation Xrotation Yrotation
					End Site
					{
						OFFSET 0.000000 0.000001 10.404503
					}
				}
			}
			JOINT LeftCollar
			{
				OFFSET 2.833800 -1.396299 4.843300
				CHANNELS 6 Xposition Yposition Zposition Zrotation Xrotation Yrotation
				JOINT LeftShoulder
				{
					OFFSET 4.363600 0.000000 0.000000
					CHANNELS 6 Xposition Yposition Zposition Zrotation Xrotation Yrotation
					JOINT LeftElbow
					{
						OFFSET 0.000000 -0.000001 -10.306900
						CHANNELS 6 Xposition Yposition Zposition Zrotation Xrotation Yrotation
						JOINT LeftWrist
						{
							OFFSET 0.000000 -0.000001 -12.404900
							CHANNELS 6 Xposition Yposition Zposition Zrotation Xrotation Yrotation
							End Site
							{
								OFFSET 0.000000 0.000000 -2.173901
							}
						}
					}
				}
			}
			JOINT RightCollar
			{
				OFFSET -2.354800 -1.897200 5.063099
				CHANNELS 6 Xposition Yposition Zposition Zrotation Xrotation Yrotation
				JOINT RightShoulder
				{
					OFFSET -4.375800 0.000000 0.000000
					CHANNELS 6 Xposition Yposition Zposition Zrotation Xrotation Yrotation
					JOINT RightElbow
					{
						OFFSET 0.000000 -0.000001 -10.005001
						CHANNELS 6 Xposition Yposition Zposition Zrotation Xrotation Yrotation
						JOINT RightWrist
						{
							OFFSET 0.000000 -0.000001 -13.174900
							CHANNELS 6 Xposition Yposition Zposition Zrotation Xrotation Yrotation
							End Site
							{
								OFFSET 0.000000 0.000000 -2.173901
							}
						}
					}
				}
			}
		}
	}
	JOINT LeftHip
	{
		OFFSET 2.240600 0.386800 -2.614101
		CHANNELS 6 Xposition Yposition Zposition Zrotation Xrotation Yrotation
		JOINT LeftKnee
		{
			OFFSET 0.000000 -0.000001 -18.592899
			CHANNELS 6 Xposition Yposition Zposition Zrotation Xrotation Yrotation
			JOINT LeftAnkle
			{
				OFFSET 0.000000 -0.000001 -18.765800
				CHANNELS 6 Xposition Yposition Zposition Zrotation Xrotation Yrotation
				End Site
				{
					OFFSET 0.000000 -8.655000 0.000000
				}
			}
		}
	}
	JOINT RightHip
	{
		OFFSET -2.014900 -0.220900 -2.615898
		CHANNELS 6 Xposition Yposition Zposition Zrotation Xrotation Yrotation
		JOINT RightKnee
		{
			OFFSET 0.000000 -0.000001 -18.633900
			CHANNELS 6 Xposition Yposition Zposition Zrotation Xrotation Yrotation
			JOINT RightAnkle
			{
				OFFSET 0.000000 -0.000001 -18.285101
				CHANNELS 6 Xposition Yposition Zposition Zrotation Xrotation Yrotation
				End Site
				{
					OFFSET 0.000000 -7.524500 0.000000
				}
			}
		}
	}
}
MOTION
Frames: 9
Frame Time: 0.041667
-3.198496 23.861704 7.690304 -31.319416 -13.005720 9.828864 -0.204898 1.598101 7.917307 33.296055 10.147639 -2.158898 -0.000000 0.000004 3.404104 -24.360035 -13.998386 -3.921116 -0.000001 -0.000005 7.928600 27.327223 8.336267 -28.180768 0.000001 0.000000 2.173908 2.787010 3.833115 3.858767 2.833802 -1.396303 4.843303 -3.224719 10.186579 12.582989 4.363593 0.000000 -0.000001 -20.033537 31.539785 -66.776663 0.000005 0.000004 -10.306901 571.895018 -130.535611 583.762663 -0.000002 -0.000002 -12.404894 52.092091 355.623170 -371.181713 -2.354801 -1.897202 5.063105 4.710253 6.328901 -14.593724 -4.375799 0.000013 -0.000003 80.487728 -13.388493 126.240078 0.000003 0.000010 -10.005001 -654.704067 -176.363421 -589.351998 -0.000004 0.000000 -13.174903 -95.828128 -155.763611 223.021017 2.240602 0.386802 -2.614099 88.925771 -59.370572 90.537607 0.000000 0.000001 -18.592896 -20.237337 41.546077 11.399466 0.000002 0.000001 -18.765795 -34.032442 54.439128 10.051227 -2.014897 -0.220892 -2.615892 -91.739194 -23.837256 -71.814159 -0.000002 0.000003 -18.633886 104.203231 -1.099992 -160.706906 -0.000005 -0.000003 -18.285082 -52.571157 31.431912 -171.520831
-3.191799 23.864910 7.682602 -31.288024 -13.138192 9.861467 -0.204897 1.598099 7.917309 33.286732 10.290227 -1.998555 0.000000 -0.000001 3.404100 -24.128050 -13.909969 -3.888904 -0.000002 -0.000000 7.928601 27.336825 8.330387 -28.200126 -0.000000 -0.000002 2.173902 2.869692 3.659035 3.682371 2.833801 -1.396300 4.843305 -3.350444 10.180172 12.278950 4.363594 0.000002 -0.000001 -20.405317 31.128847 -66.889996 0.000004 0.000008 -10.306898 572.302097 -130.163735 584.479286 -0.000002 -0.000001 -12.404895 52.109169 355.857172 -370.844902 -2.354802 -1.897200 5.063104 5.333608 6.596306 -14.727440 -4.375799 0.000014 -0.000013 80.967064 -14.073080 125.425714 0.000002 0.000005 -10.004998 -654.086673 -176.671162 -590.158725 -0.000002 0.000009 -13.174895 -93.677001 -156.259374 224.057266 2.240604 0.386807 -2.614100 88.646423 -59.397968 90.279009 0.000000 -0.000000 -18.592897 -19.995077 41.502709 11.192191 0.000001 0.000002 -18.765800 -34.207998 54.932821 10.274035 -2.014895 -0.220892 -2.615895 -91.846066 -23.624391 -71.707793 0.000000 0.000004 -18.633884 104.331638 -1.152911 -160.745510 -0.000007 -0.000005 -18.285084 -52.633332 31.460596 -171.482650
-3.183998 23.867599 7.674511 -31.257189 -13.274830 9.903966 -0.204900 1.598097 7.917312 33.282641 10.436218 -1.872636 0.000000 0.000001 3.404110 -23.893895 -13.829936 -3.855824 -0.000003 0.000001 7.928596 27.397458 8.365422 -28.250164 -0.000001 0.000003 2.173901 2.863223 3.776064 3.659343 2.833800 -1.396301 4.843306 -3.456919 10.163593 12.009865 4.363594 -0.000001 -0.000000 -20.808033 30.800574 -67.031593 0.000005 0.000007 -10.306899 572.788625 -129.795260 585.210280 -0.000002 -0.000000 -12.404895 52.166376 356.119561 -370.488339 -2.354804 -1.897203 5.063104 5.949251 7.712991 -14.879854 -4.375798 0.000009 -0.000006 82.113880 -14.841065 125.513974 0.000013 0.000004 -10.004995 -653.218310 -176.758834 -590.632904 -0.000006 0.000004 -13.174900 -92.117477 -156.310027 224.805882 2.240600 0.386803 -2.614102 88.354815 -59.448799 90.001232 0.000002 -0.000001 -18.592896 -19.491881 41.465119 10.838747 0.000004 0.000002 -18.765797 -34.561157 55.425657 10.636644 -2.014898 -0.220895 -2.615898 -91.978565 -23.362660 -71.609739 0.000000 0.000002 -18.633884 104.516777 -1.204165 -160.792598 -0.000003 -0.000003 -18.285082 -52.685989 31.491946 -171.454045
-3.175198 23.870104 7.665813 -31.227420 -13.411733 10.021930 -0.204899 1.598101 7.917303 33.291134 10.569330 -1.802971 0.000000 0.000002 3.404097 -23.699826 -13.775026 -3.828231 -0.000001 -0.000001 7.928600 27.502517 8.358811 -28.361343 -0.000000 0.000001 2.173909 2.846373 3.770994 3.636677 2.833802 -1.396301 4.843304 -3.508587 10.149566 11.734004 4.363591 0.000001 0.000001 -21.196840 30.473254 -67.209512 0.000004 0.000001 -10.306900 573.219309 -129.399737 585.915702 -0.000003 -0.000002 -12.404899 52.294346 356.482982 -370.063966 -2.354801 -1.897202 5.063100 6.524974 7.529155 -15.089537 -4.375798 0.000010 -0.000009 82.693749 -15.352220 124.318991 0.000007 0.000005 -10.004995 -652.317107 -176.873322 -590.985451 -0.000002 0.000006 -13.174896 -90.517335 -156.290561 225.640914 2.240600 0.386810 -2.614103 88.055844 -59.595689 89.708743 0.000000 -0.000002 -18.592897 -18.798706 41.426146 10.390677 0.000002 0.000002 -18.765797 -35.057862 55.865545 11.197743 -2.014899 -0.220891 -2.615900 -92.133146 -22.989599 -71.523009 -0.000001 0.000001 -18.633884 104.757446 -1.249309 -160.847444 -0.000004 -0.000005 -18.285084 -52.727240 31.524765 -171.435877
-3.166297 23.871208 7.656807 -31.197927 -13.552511 10.097085 -0.204901 1.598103 7.917307 33.295130 10.742734 -1.705508 0.000001 0.000000 3.404103 -23.538413 -13.731701 -3.807097 -0.000003 0.000002 7.928599 27.589858 8.342659 -28.456067 0.000000 0.000000 2.173909 2.875293 3.795756 3.576759 2.833802 -1.396302 4.843302 -3.496977 10.130325 11.480732 4.363594 0.000002 0.000001 -21.563981 30.117535 -67.448603 0.000005 0.000003 -10.306902 573.587156 -129.006960 586.643199 -0.000001 -0.000002 -12.404892 52.418574 356.827660 -369.671613 -2.354801 -1.897201 5.063103 7.097714 7.384249 -15.401829 -4.375797 0.000014 -0.000007 83.321935 -15.837192 123.200179 0.000001 0.000008 -10.004999 -651.353176 -177.127186 -591.305978 -0.000005 0.000005 -13.174899 -89.067893 -156.325613 226.342811 2.240599 0.386803 -2.614101 87.764413 -59.693224 89.403379 0.000002 -0.000000 -18.592897 -17.954204 41.379147 9.864984 0.000002 0.000001 -18.765799 -35.824008 56.281203 12.139780 -2.014900 -0.220890 -2.615895 -92.268254 -22.686106 -71.429128 -0.000001 0.000002 -18.633890 104.980028 -1.288650 -160.902113 -0.000003 -0.000005 -18.285084 -52.761746 31.552025 -171.420659
-3.156897 23.871105 7.647713 -31.172819 -13.657245 10.172509 -0.204901 1.598104 7.917306 33.292391 10.885842 -1.575824 0.000000 -0.000000 3.404101 -23.399458 -13.675027 -3.788790 -0.000003 0.000001 7.928600 27.705114 8.301422 -28.586058 -0.000001 -0.000001 2.173908 2.883116 3.816993 3.546428 2.833802 -1.396301 4.843305 -3.410455 10.111876 11.178527 4.363585 0.000003 0.000001 -21.967483 29.736926 -67.693930 0.000003 0.000000 -10.306902 574.046582 -128.721718 587.502437 -0.000002 -0.000002 -12.404891 52.451058 357.112998 -369.289395 -2.354804 -1.897199 5.063103 7.648244 7.227062 -15.719554 -4.375797 0.000008 -0.000013 83.709364 -16.315802 122.115012 0.000005 0.000004 -10.004999 -650.575956 -177.735456 -591.774365 -0.000006 0.000006 -13.174898 -87.485755 -156.384107 226.971038 2.240600 0.386804 -2.614101 87.552343 -59.771470 89.170018 0.000001 0.000000 -18.592897 -17.040053 41.334187 9.303073 0.000000 0.000002 -18.765797 -36.759600 56.647000 13.346651 -2.014899 -0.220891 -2.615899 -92.408621 -22.401130 -71.372123 0.000000 0.000000 -18.633886 105.193977 -1.321967 -160.957178 -0.000010 -0.000005 -18.285086 -52.786519 31.576006 -171.411903
-3.147898 23.870104 7.637810 -31.153487 -13.758924 10.267647 -0.204900 1.598101 7.917310 33.299874 11.001283 -1.492019 -0.000000 0.000003 3.404099 -23.240002 -13.631913 -3.765571 -0.000002 0.000004 7.928602 27.837662 8.272663 -28.718958 0.000002 0.000002 2.173896 2.841957 3.836991 3.559748 2.833802 -1.396299 4.843302 -3.407823 10.067999 11.075583 4.363585 0.000000 -0.000006 -22.246577 29.527219 -68.087629 0.000005 0.000006 -10.306903 574.463934 -128.335867 588.247474 -0.000001 -0.000002 -12.404893 52.653918 357.363858 -368.963267 -2.354802 -1.897195 5.063098 9.124286 7.102215 -16.106498 -4.375797 0.000011 -0.000004 83.028360 -16.757671 121.204439 0.000003 0.000004 -10.004997 -650.005935 -178.354749 -592.386897 -0.000005 0.000000 -13.174898 -85.912674 -156.671521 227.399414 2.240599 0.386804 -2.614102 87.363782 -59.857490 88.943748 0.000000 0.000001 -18.592896 -16.122489 41.284460 8.742833 0.000002 0.000001 -18.765799 -37.758454 56.972254 14.697572 -2.014899 -0.220889 -2.615897 -92.525007 -22.129528 -71.317222 0.000001 0.000001 -18.633884 105.386684 -1.344151 -161.011697 -0.000005 -0.000006 -18.285086 -52.800190 31.595796 -171.410441
-3.139799 23.868303 7.628307 -31.134704 -13.853838 10.370541 -0.204900 1.598099 7.917306 33.309422 11.104796 -1.436012 0.000000 0.000001 3.404103 -23.067050 -13.588911 -3.739884 -0.000000 -0.000001 7.928598 27.925269 8.246131 -28.797293 0.000000 0.000003 2.173895 2.787414 3.915261 3.521510 2.833804 -1.396301 4.843303 -3.462079 10.010421 11.002694 4.363592 0.000002 0.000001 -22.463620 29.311183 -68.474463 0.000003 0.000004 -10.306902 574.804569 -127.916452 588.936230 -0.000001 -0.000001 -12.404897 52.897752 357.608624 -368.598508 -2.354802 -1.897201 5.063097 9.615501 6.997257 -16.510014 -4.375799 0.000008 -0.000006 82.977557 -16.874262 119.911156 0.000005 0.000005 -10.004999 -649.544597 -178.998522 -593.168052 -0.000006 0.000005 -13.174893 -84.195093 -156.897355 227.990171 2.240601 0.386801 -2.614101 87.198211 -59.926721 88.728932 -0.000001 0.000001 -18.592896 -15.403856 41.217542 8.259889 0.000001 0.000001 -18.765797 -38.723112 57.263469 16.112520 -2.014897 -0.220898 -2.615896 -92.584812 -21.938209 -71.251823 -0.000000 0.000002 -18.633884 105.497934 -1.353093 -161.055669 -0.000007 -0.000005 -18.285082 -52.803274 31.605543 -171.412873
-3.131599 23.865208 7.618698 -31.120367 -13.954102 10.495004 -0.204900 1.598099 7.917305 33.330623 11.195706 -1.425457 -0.000000 -0.000000 3.404101 -22.900089 -13.553357 -3.715280 -0.000002 -0.000000 7.928596 27.991789 8.217728 -28.838971 0.000001 0.000001 2.173900 2.761326 4.006292 3.441902 2.833803 -1.396302 4.843299 -3.269432 12.855578 10.974185 4.363590 0.000003 -0.000001 -22.854464 26.571512 -70.130770 0.000005 0.000004 -10.306903 575.296343 -127.586062 589.711484 -0.000003 -0.000001 -12.404893 52.995779 357.792192 -368.266998 -2.354801 -1.897202 5.063092 10.088299 6.892498 -16.858567 -4.375800 0.000013 -0.000008 82.645808 -16.772322 118.454045 -0.000003 0.000006 -10.004998 -649.436516 -179.264735 -594.015542 -0.000002 -0.000001 -13.174902 -82.863876 -157.194167 228.250961 2.240601 0.386804 -2.614104 87.027306 -59.999906 88.497511 -0.000001 0.000002 -18.592897 -14.864495 41.125167 7.909162 0.000002 0.000001 -18.765800 -39.742685 57.589594 17.477158 -2.014898 -0.220890 -2.615903 -92.632159 -21.737652 -71.183009 -0.000000 0.000005 -18.633886 105.614853 -1.354324 -161.101882 -0.000002 -0.000005 -18.285084 -52.792311 31.613684 -171.426410
